<svg xmlns="http://www.w3.org/2000/svg" width="120" height="120" viewBox="0 0 120 120">
  <g id="Grupo_2" data-name="Grupo 2" transform="translate(-755 -395)">
    <rect id="Retângulo_1" data-name="Retângulo 1" width="120" height="120" rx="20" transform="translate(755 395)" fill="#212529"/>
    <g id="car-garage" transform="translate(858.535 503.084) rotate(180)">
      <g id="Grupo_1" data-name="Grupo 1" transform="translate(4.96 14.634)">
        <path id="Caminho_1" data-name="Caminho 1" d="M78.721,42.868A3.948,3.948,0,0,0,74.849,39.6H72.664l-.832-8.671a17.928,17.928,0,0,0-17.9-16.29H33.145A17.938,17.938,0,0,0,15.24,30.923l-.832,8.671H12.215a3.954,3.954,0,0,0-3.876,3.273l-3.263,18.5a7.9,7.9,0,0,0,7.518,9.249v3.071a7.826,7.826,0,0,0,7.836,7.851H22.9a7.864,7.864,0,0,0,7.884-7.851V70.655H56.305v3.014a7.844,7.844,0,0,0,7.856,7.857h2.477a7.849,7.849,0,0,0,7.86-7.857V70.605a7.881,7.881,0,0,0,7.5-9.227ZM19.492,63.522a6.643,6.643,0,1,1,4.7-1.945,6.647,6.647,0,0,1-4.7,1.945ZM21.149,39.6l.768-8A11.231,11.231,0,0,1,33.147,21.4h1.2v2.514a3.893,3.893,0,0,0,3.913,3.919h10.56a3.919,3.919,0,0,0,3.943-3.919V21.4h1.168A11.228,11.228,0,0,1,65.155,31.6l.77,8H21.151ZM67.573,63.522a6.643,6.643,0,1,1,4.7-1.945,6.647,6.647,0,0,1-4.7,1.945Z" transform="translate(-4.96 -14.634)" fill="#f2f2f2"/>
      </g>
    </g>
  </g>
</svg>
